<svg width="32" height="32" viewBox="0 0 32 32" fill="none" xmlns="http://www.w3.org/2000/svg">
<circle cx="16" cy="16" r="16" fill="#FE0000"/>
<path d="M16.8807 23.2727V18.625H16.7955C16.6894 18.8371 16.536 19.0625 16.3352 19.3011C16.1345 19.536 15.8693 19.7367 15.5398 19.9034C15.2102 20.0701 14.7955 20.1534 14.2955 20.1534C13.6098 20.1534 12.9962 19.9773 12.4545 19.625C11.9129 19.2727 11.4848 18.7614 11.1705 18.0909C10.8561 17.4205 10.6989 16.6061 10.6989 15.6477C10.6989 14.678 10.858 13.8598 11.1761 13.1932C11.4981 12.5227 11.9318 12.017 12.4773 11.6761C13.0227 11.3314 13.6307 11.1591 14.3011 11.1591C14.8125 11.1591 15.233 11.2462 15.5625 11.4205C15.892 11.5909 16.1534 11.7973 16.3466 12.0398C16.5398 12.2784 16.6894 12.5038 16.7955 12.7159H16.9205V11.2727H18.9432V23.2727H16.8807ZM14.8693 18.4659C15.3049 18.4659 15.6761 18.3485 15.983 18.1136C16.2898 17.875 16.5227 17.5436 16.6818 17.1193C16.8409 16.6951 16.9205 16.2008 16.9205 15.6364C16.9205 15.072 16.8409 14.5814 16.6818 14.1648C16.5265 13.7481 16.2955 13.4242 15.9886 13.1932C15.6856 12.9621 15.3125 12.8466 14.8693 12.8466C14.411 12.8466 14.0284 12.9659 13.7216 13.2045C13.4148 13.4432 13.1837 13.7727 13.0284 14.1932C12.8731 14.6136 12.7955 15.0947 12.7955 15.6364C12.7955 16.1818 12.8731 16.6686 13.0284 17.0966C13.1875 17.5208 13.4205 17.8561 13.7273 18.1023C14.0379 18.3447 14.4186 18.4659 14.8693 18.4659Z" fill="white"/>
</svg>
